<mxfile host="app.diagrams.net" modified="2023-06-29T01:22:10.172Z" agent="Mozilla/5.0 (Windows NT 10.0; Win64; x64) AppleWebKit/537.36 (KHTML, like Gecko) Chrome/111.0.0.0 Safari/537.36" version="21.4.0" etag="pt2qRf0bRhBMuJsjK3Ae" type="github">
  <diagram name="第 1 页" id="NtEmfrmZ1KCaxX4N61uh">
    <mxGraphModel>
      <root>
        <mxCell id="0" />
        <mxCell id="1" parent="0" />
      </root>
    </mxGraphModel>
  </diagram>
</mxfile>
